<?xml version="1.0" encoding="UTF-8" standalone="no"?>



<svg id="svg8329" xmlns="http://www.w3.org/2000/svg" height="53.531" width="120" version="1.1" xmlns:xlink="http://www.w3.org/1999/xlink">

 <defs id="defs8331">

  <linearGradient id="linearGradient7134" x1="200" gradientUnits="userSpaceOnUse" x2="320" gradientTransform="matrix(0.4,0,0,0.2080024,281.42367,408.16259)" y1="571.91" y2="571.91">

   <stop id="stop3250" stop-color="#d8d8d8" offset="0"/>

   <stop id="stop3252" stop-color="#b1b1b1" offset="1"/>

  </linearGradient>

  <linearGradient id="linearGradient7132" x1="332.92" gradientUnits="userSpaceOnUse" x2="355.82" gradientTransform="matrix(0.2087115,0,0,0.2080024,249.04969,440.92403)" y1="520.33" y2="535.99">

   <stop id="stop3264" stop-color="#656565" offset="0"/>

   <stop id="stop3266" stop-color="#939393" offset="1"/>

  </linearGradient>

  <linearGradient id="linearGradient5093" x1="529.11" gradientUnits="userSpaceOnUse" x2="526.08" gradientTransform="matrix(0.2087115,0,0,0.2080024,315.55005,440.92403)" y1="333.99" y2="321.37">

   <stop id="stop3298" stop-color="#d6d6d6" offset="0"/>

   <stop id="stop3300" stop-color="#656565" offset="1"/>

  </linearGradient>

  <linearGradient id="linearGradient5095" x1="338.63" gradientUnits="userSpaceOnUse" x2="358.68" gradientTransform="matrix(-0.2087115,0,0,0.2080024,500.43522,440.92403)" y1="522.48" y2="538.13">

   <stop id="stop3278" stop-color="#d6d6d6" offset="0"/>

   <stop id="stop3280" stop-color="#939393" offset="1"/>

  </linearGradient>

 </defs>

 

 <g id="layer1" transform="translate(-315,-505.59375)">

  <rect id="rect7106" transform="scale(1,-1)" fill-rule="evenodd" rx="4.7705" ry="4.0115" height="52.044" width="116.18" y="-558.38" x="315.75" fill="#656565"/>

  <rect id="rect7112" fill-rule="evenodd" rx="0" ry="0" height="12.975" width="103.11" y="545.4" x="324.84" fill="#929292"/>

  <rect id="rect4831" fill-rule="evenodd" height="34.564" width="11.279" y="510.2" x="422.44" fill="#d6d6d6"/>

  <path id="path4833" fill-rule="evenodd" fill="url(#linearGradient5093)" d="m424.6,513.22,9.0939-2.9715c-0.36125-2.8568-2.3291-3.8457-5.0687-3.9372-3.6454,0.10572-7.2028,0.26014-9.0939,1.3372l5.0687,5.5715z"/>

  <path id="path4837" fill-rule="evenodd" fill="url(#linearGradient5095)" d="m422.9,542.35,10.805,1.1556,0.0395,10.506c-0.006,2.7094-2.1668,4.2661-4.4011,4.3599l-4.8096-0.0525-5.3235-12.344,3.6895-3.6245z"/>

  <rect id="rect7108" fill-rule="evenodd" height="34.564" width="11.279" y="510.2" x="367.01" fill="#d6d6d6"/>

  <path id="path7116" fill-rule="evenodd" fill="url(#linearGradient7132)" d="m323.26,542.25-7.4845,1.2607-0.0395,10.506c0.006,2.7094,2.1668,4.2661,4.4011,4.3599l4.8096-0.0525,1.6866-12.292-3.3733-3.782z"/>

  <rect id="rect7118" fill-rule="evenodd" rx="4.7705" ry="4.7543" height="40.245" width="104.5" y="507" x="322.52" fill="#f1f1f1"/>

  <rect id="rect7120" fill-rule="evenodd" rx="4.7705" ry="4.7543" height="40.245" width="103" y="507" x="322.52" fill="url(#linearGradient7134)"/>

  

  

 </g>

<g transform="translate(-121.043,-77.047) scale(3.0759)"><g id="g1089-1" transform="rotate(180,68.728021,80.845785)">
      <g id="g8863-2-7" transform="matrix(1,0,0,-1,43.047567,186.94912)">
        <g id="g8662-8-6" transform="translate(0.09928143,3.6402387)">
          <g id="g8447-6-3" transform="rotate(135,45.126949,61.524465)">
            <g id="g1852" style="opacity:1">
              <path style="color:#2b2b2b;font-style:normal;font-variant:normal;font-weight:normal;font-stretch:normal;font-size:medium;line-height:normal;font-family:sans-serif;font-variant-ligatures:normal;font-variant-position:normal;font-variant-caps:normal;font-variant-numeric:normal;font-variant-alternates:normal;font-variant-east-asian:normal;font-feature-settings:normal;font-variation-settings:normal;text-indent:0;text-align:start;text-decoration:none;text-decoration-line:none;text-decoration-style:solid;text-decoration-color:#2b2b2b;letter-spacing:normal;word-spacing:normal;text-transform:none;writing-mode:lr-tb;direction:ltr;text-orientation:mixed;dominant-baseline:auto;baseline-shift:baseline;text-anchor:start;white-space:normal;shape-padding:0;shape-margin:0;inline-size:0;clip-rule:nonzero;display:inline;overflow:visible;visibility:visible;isolation:auto;mix-blend-mode:normal;color-interpolation:sRGB;color-interpolation-filters:linearRGB;solid-color:#2b2b2b;solid-opacity:1;vector-effect:none;fill:#2b2b2b;fill-opacity:1;fill-rule:nonzero;stroke:none;stroke-width:0.696495;stroke-linecap:round;stroke-linejoin:round;stroke-miterlimit:4;stroke-dasharray:none;stroke-dashoffset:0;stroke-opacity:1.0;paint-order:normal;color-rendering:auto;image-rendering:auto;shape-rendering:auto;text-rendering:auto;enable-background:accumulate;stop-color:#2b2b2b;stop-opacity:1;" d="m 46.170327,74.503273 c 0,0.436273 -0.353669,0.789941 -0.789941,0.789941 -0.436272,0 -0.78994,-0.353669 -0.78994,-0.789941 0,-0.436272 0.353668,-0.789941 0.78994,-0.789941 0.436272,0 0.789941,0.353668 0.789941,0.789941 z" id="path1854" />
              <path style="color:#2b2b2b;font-style:normal;font-variant:normal;font-weight:normal;font-stretch:normal;font-size:medium;line-height:normal;font-family:sans-serif;font-variant-ligatures:normal;font-variant-position:normal;font-variant-caps:normal;font-variant-numeric:normal;font-variant-alternates:normal;font-variant-east-asian:normal;font-feature-settings:normal;font-variation-settings:normal;text-indent:0;text-align:start;text-decoration:none;text-decoration-line:none;text-decoration-style:solid;text-decoration-color:#2b2b2b;letter-spacing:normal;word-spacing:normal;text-transform:none;writing-mode:lr-tb;direction:ltr;text-orientation:mixed;dominant-baseline:auto;baseline-shift:baseline;text-anchor:start;white-space:normal;shape-padding:0;shape-margin:0;inline-size:0;clip-rule:nonzero;display:inline;overflow:visible;visibility:visible;isolation:auto;mix-blend-mode:normal;color-interpolation:sRGB;color-interpolation-filters:linearRGB;solid-color:#2b2b2b;solid-opacity:1;vector-effect:none;fill:#2b2b2b;fill-opacity:1;fill-rule:nonzero;stroke:none;stroke-width:0.696495;stroke-linecap:round;stroke-linejoin:round;stroke-miterlimit:4;stroke-dasharray:none;stroke-dashoffset:0;stroke-opacity:1.0;paint-order:normal;color-rendering:auto;image-rendering:auto;shape-rendering:auto;text-rendering:auto;enable-background:accumulate;stop-color:#2b2b2b;stop-opacity:1;" d="M 45.380859 73.365234 C 44.75638 73.365235 44.242187 73.879427 44.242188 74.503906 C 44.242187 75.128385 44.75638 75.640625 45.380859 75.640625 C 46.005339 75.640625 46.519532 75.128386 46.519531 74.503906 C 46.519532 73.879427 46.005339 73.365234 45.380859 73.365234 z M 45.380859 74.0625 C 45.628925 74.0625 45.822266 74.255841 45.822266 74.503906 C 45.822266 74.751972 45.628925 74.945313 45.380859 74.945312 C 45.132794 74.945312 44.939453 74.751971 44.939453 74.503906 C 44.939453 74.255841 45.132794 74.0625 45.380859 74.0625 z " id="path1856" />
            </g>
          </g>
          <g id="g8447-41-5-6-7" transform="matrix(0.70710678,-0.70710678,-0.70710678,-0.70710678,56.690235,142.47983)" />
          <g id="g8536-5-2-1" transform="matrix(-0.70710678,-0.70710678,-0.70710678,0.70710678,99.358414,41.81156)">
            <g id="g8447-9-9-0" transform="rotate(180,41.816105,63.992243)" />
            <g id="g8447-41-4-4-8" transform="rotate(180,40.810503,65.255092)" />
            <g id="g8447-41-5-8-8-2" transform="matrix(1,0,0,-1,-10.558339,130.51018)" />
          </g>
        </g>
        <path style="color:#2b2b2b;font-style:normal;font-variant:normal;font-weight:normal;font-stretch:normal;font-size:medium;line-height:normal;font-family:sans-serif;font-variant-ligatures:normal;font-variant-position:normal;font-variant-caps:normal;font-variant-numeric:normal;font-variant-alternates:normal;font-variant-east-asian:normal;font-feature-settings:normal;font-variation-settings:normal;text-indent:0;text-align:start;text-decoration:none;text-decoration-line:none;text-decoration-style:solid;text-decoration-color:#2b2b2b;letter-spacing:normal;word-spacing:normal;text-transform:none;writing-mode:lr-tb;direction:ltr;text-orientation:mixed;dominant-baseline:auto;baseline-shift:baseline;text-anchor:start;white-space:normal;shape-padding:0;shape-margin:0;inline-size:0;clip-rule:nonzero;display:inline;overflow:visible;visibility:visible;isolation:auto;mix-blend-mode:normal;color-interpolation:sRGB;color-interpolation-filters:linearRGB;solid-color:#2b2b2b;solid-opacity:1;vector-effect:none;fill:#2b2b2b;fill-opacity:1;fill-rule:nonzero;stroke:none;stroke-width:1;stroke-linecap:round;stroke-linejoin:miter;stroke-miterlimit:4;stroke-dasharray:none;stroke-dashoffset:0;stroke-opacity:1;color-rendering:auto;image-rendering:auto;shape-rendering:auto;text-rendering:auto;enable-background:accumulate;stop-color:#2b2b2b;stop-opacity:1;opacity:1" d="M 37.847656 57.203125 A 0.5 0.5 0 0 0 37.517578 57.349609 A 0.5 0.5 0 0 0 37.517578 58.056641 L 39.365234 59.90625 A 0.5 0.5 0 0 0 40.072266 59.90625 A 0.5 0.5 0 0 0 40.072266 59.199219 L 38.224609 57.349609 A 0.5 0.5 0 0 0 37.847656 57.203125 z " id="path1860" />
        <path style="color:#2b2b2b;font-style:normal;font-variant:normal;font-weight:normal;font-stretch:normal;font-size:medium;line-height:normal;font-family:sans-serif;font-variant-ligatures:normal;font-variant-position:normal;font-variant-caps:normal;font-variant-numeric:normal;font-variant-alternates:normal;font-variant-east-asian:normal;font-feature-settings:normal;font-variation-settings:normal;text-indent:0;text-align:start;text-decoration:none;text-decoration-line:none;text-decoration-style:solid;text-decoration-color:#2b2b2b;letter-spacing:normal;word-spacing:normal;text-transform:none;writing-mode:lr-tb;direction:ltr;text-orientation:mixed;dominant-baseline:auto;baseline-shift:baseline;text-anchor:start;white-space:normal;shape-padding:0;shape-margin:0;inline-size:0;clip-rule:nonzero;display:inline;overflow:visible;visibility:visible;isolation:auto;mix-blend-mode:normal;color-interpolation:sRGB;color-interpolation-filters:linearRGB;solid-color:#2b2b2b;solid-opacity:1;vector-effect:none;fill:#2b2b2b;fill-opacity:1;fill-rule:nonzero;stroke:none;stroke-width:1;stroke-linecap:round;stroke-linejoin:miter;stroke-miterlimit:4;stroke-dasharray:none;stroke-dashoffset:0;stroke-opacity:1;color-rendering:auto;image-rendering:auto;shape-rendering:auto;text-rendering:auto;enable-background:accumulate;stop-color:#2b2b2b;stop-opacity:1;opacity:1" d="M 33.845703 57.203125 A 0.5 0.5 0 0 0 33.515625 57.349609 L 31.666016 59.199219 A 0.5 0.5 0 0 0 31.666016 59.90625 A 0.5 0.5 0 0 0 32.373047 59.90625 L 34.222656 58.056641 A 0.5 0.5 0 0 0 34.222656 57.349609 A 0.5 0.5 0 0 0 33.845703 57.203125 z " id="path1864" />
      </g>
    </g>
    </g></svg>

