<?xml version="1.0" encoding="UTF-8" standalone="no"?>



<svg id="svg6645" xmlns="http://www.w3.org/2000/svg" height="53.531" width="64.812" version="1.1">

 <defs id="defs6647">

  <linearGradient id="linearGradient7325" y2="571.91" gradientUnits="userSpaceOnUse" y1="571.91" gradientTransform="matrix(0.2688275,0,0,0.2080024,290.25704,408.1626)" x2="352.27" x1="275.73">

   <stop id="stop3250" stop-color="#d8d8d8" offset="0"/>

   <stop id="stop3252" stop-color="#b1b1b1" offset="1"/>

  </linearGradient>

  <linearGradient id="linearGradient7323" y2="535.99" gradientUnits="userSpaceOnUse" y1="520.33" gradientTransform="matrix(0.2087115,0,0,0.2080024,276.95613,440.92404)" x2="355.82" x1="332.92">

   <stop id="stop3264" stop-color="#656565" offset="0"/>

   <stop id="stop3266" stop-color="#939393" offset="1"/>

  </linearGradient>

  <linearGradient id="linearGradient7321" y2="538.13" gradientUnits="userSpaceOnUse" y1="522.48" gradientTransform="matrix(-0.2087115,0,0,0.2080024,473.41843,440.92404)" x2="358.68" x1="338.63">

   <stop id="stop3278" stop-color="#d6d6d6" offset="0"/>

   <stop id="stop3280" stop-color="#939393" offset="1"/>

  </linearGradient>

  <linearGradient id="linearGradient7319" y2="321.37" gradientUnits="userSpaceOnUse" y1="333.99" gradientTransform="matrix(0.2087115,0,0,0.2080024,288.53327,441.91389)" x2="526.08" x1="529.11">

   <stop id="stop3298" stop-color="#d6d6d6" offset="0"/>

   <stop id="stop3300" stop-color="#656565" offset="1"/>

  </linearGradient>

 </defs>

 

 <g id="layer1" transform="translate(-342.59375,-505.59375)">

  <rect id="rect7297" fill-rule="evenodd" rx="4.7705" ry="4.0115" height="52.044" width="61.714" y="506.34" x="343.69" fill="#656565"/>

  <rect id="rect7299" fill-rule="evenodd" height="36.332" width="11.279" y="510.44" x="395.42" fill="#d6d6d6"/>

  <path id="path7301" d="m397.59,514.21,9.0939-2.9715c-0.36125-2.8568-2.3291-3.8457-5.0687-3.9372-3.6454,0.10572-7.2028,0.26014-9.0939,1.3372l5.0687,5.5715z" fill="url(#linearGradient7319)" fill-rule="evenodd"/>

  <rect id="rect7303" fill-rule="evenodd" rx="0" ry="0" height="12.975" width="51.684" y="545.4" x="351.35" fill="#929292"/>

  <path id="path7305" d="m395.89,542.35,10.805,1.1556,0.0395,10.506c-0.006,2.7094-2.1668,4.2661-4.4011,4.3599l-4.8096-0.0525-5.3235-12.344,3.6895-3.6245z" fill="url(#linearGradient7321)" fill-rule="evenodd"/>

  <path id="path7307" d="m351.17,542.25-7.4845,1.2607-0.0395,10.506c0.006,2.7094,2.1668,4.2661,4.4011,4.3599l4.8096-0.0525,1.6866-12.292-3.3733-3.782z" fill-rule="evenodd" fill="url(#linearGradient7323)"/>

  <rect id="rect7309" fill-rule="evenodd" rx="4.7705" ry="4.7543" height="40.245" width="30.222" y="507" x="367.25" fill="#f1f1f1"/>

  <rect id="rect7311" fill-rule="evenodd" rx="4.7705" ry="4.7543" height="40.245" width="45.701" y="507" x="350.46" fill="url(#linearGradient7325)"/>

  

 </g>

<g transform="translate(-91.147,-8.383) scale(2.0818)"><g id="g2355-2" transform="translate(32.158922,-92.895886)">
      <path style="color:#2b2b2b;font-style:normal;font-variant:normal;font-weight:normal;font-stretch:normal;font-size:medium;line-height:normal;font-family:sans-serif;font-variant-ligatures:normal;font-variant-position:normal;font-variant-caps:normal;font-variant-numeric:normal;font-variant-alternates:normal;font-variant-east-asian:normal;font-feature-settings:normal;font-variation-settings:normal;text-indent:0;text-align:start;text-decoration:none;text-decoration-line:none;text-decoration-style:solid;text-decoration-color:#2b2b2b;letter-spacing:normal;word-spacing:normal;text-transform:none;writing-mode:lr-tb;direction:ltr;text-orientation:mixed;dominant-baseline:auto;baseline-shift:baseline;text-anchor:start;white-space:normal;shape-padding:0;shape-margin:0;inline-size:0;clip-rule:nonzero;display:inline;overflow:visible;visibility:visible;isolation:auto;mix-blend-mode:normal;color-interpolation:sRGB;color-interpolation-filters:linearRGB;solid-color:#2b2b2b;solid-opacity:1;vector-effect:none;fill:#2b2b2b;fill-opacity:1;fill-rule:nonzero;stroke:none;stroke-width:1;stroke-linecap:round;stroke-linejoin:round;stroke-miterlimit:4;stroke-dasharray:none;stroke-dashoffset:0;stroke-opacity:1;color-rendering:auto;image-rendering:auto;shape-rendering:auto;text-rendering:auto;enable-background:accumulate;stop-color:#2b2b2b;stop-opacity:1;opacity:1" d="M 23.787109 107.75781 A 0.5 0.5 0 0 0 23.458984 107.90234 A 0.5 0.5 0 0 0 23.458984 108.60938 L 26.025391 111.17773 A 0.50005 0.50005 0 0 0 26.732422 111.17773 L 29.300781 108.60938 A 0.5 0.5 0 0 0 29.300781 107.90234 A 0.5 0.5 0 0 0 28.59375 107.90234 L 26.378906 110.11719 L 24.166016 107.90234 A 0.5 0.5 0 0 0 23.787109 107.75781 z " id="path1896" />
      <path style="color:#2b2b2b;font-style:normal;font-variant:normal;font-weight:normal;font-stretch:normal;font-size:medium;line-height:normal;font-family:sans-serif;font-variant-ligatures:normal;font-variant-position:normal;font-variant-caps:normal;font-variant-numeric:normal;font-variant-alternates:normal;font-variant-east-asian:normal;font-feature-settings:normal;font-variation-settings:normal;text-indent:0;text-align:start;text-decoration:none;text-decoration-line:none;text-decoration-style:solid;text-decoration-color:#2b2b2b;letter-spacing:normal;word-spacing:normal;text-transform:none;writing-mode:lr-tb;direction:ltr;text-orientation:mixed;dominant-baseline:auto;baseline-shift:baseline;text-anchor:start;white-space:normal;shape-padding:0;shape-margin:0;inline-size:0;clip-rule:nonzero;display:inline;overflow:visible;visibility:visible;isolation:auto;mix-blend-mode:normal;color-interpolation:sRGB;color-interpolation-filters:linearRGB;solid-color:#2b2b2b;solid-opacity:1;vector-effect:none;fill:#2b2b2b;fill-opacity:1;fill-rule:nonzero;stroke:none;stroke-width:1;stroke-linecap:round;stroke-linejoin:round;stroke-miterlimit:4;stroke-dasharray:none;stroke-dashoffset:0;stroke-opacity:1;color-rendering:auto;image-rendering:auto;shape-rendering:auto;text-rendering:auto;enable-background:accumulate;stop-color:#2b2b2b;stop-opacity:1;opacity:1" d="M 26.355469 103.20508 A 0.50005 0.50005 0 0 0 26.025391 103.35156 L 23.458984 105.91797 A 0.5 0.5 0 0 0 23.458984 106.625 A 0.5 0.5 0 0 0 24.166016 106.625 L 26.378906 104.41211 L 28.59375 106.625 A 0.5 0.5 0 0 0 29.300781 106.625 A 0.5 0.5 0 0 0 29.300781 105.91797 L 26.732422 103.35156 A 0.50005 0.50005 0 0 0 26.355469 103.20508 z " id="path1900" />
    </g>
    </g></svg>

