<?xml version="1.0" encoding="UTF-8" standalone="no"?>
<svg
   id="mdi-keyboard-esc"
   viewBox="0 0 24 24"
   version="1.1"
   sodipodi:docname="kiwi-pgdown-symbolic (Copy 1).svg"
   inkscape:version="1.4.3 (0d15f75042, 2025-12-25)"
   xmlns:inkscape="http://www.inkscape.org/namespaces/inkscape"
   xmlns:sodipodi="http://sodipodi.sourceforge.net/DTD/sodipodi-0.dtd"
   xmlns="http://www.w3.org/2000/svg"
   xmlns:svg="http://www.w3.org/2000/svg">
  <defs
     id="defs1" />
  <sodipodi:namedview
     id="namedview1"
     pagecolor="#ffffff"
     bordercolor="#000000"
     borderopacity="0.25"
     inkscape:showpageshadow="2"
     inkscape:pageopacity="0.0"
     inkscape:pagecheckerboard="0"
     inkscape:deskcolor="#d1d1d1"
     inkscape:zoom="9.3565491"
     inkscape:cx="15.336851"
     inkscape:cy="22.925119"
     inkscape:window-width="1805"
     inkscape:window-height="1134"
     inkscape:window-x="0"
     inkscape:window-y="0"
     inkscape:window-maximized="1"
     inkscape:current-layer="g4" />
  <g
     id="g3"
     transform="matrix(0.32160496,0,0,0.32160496,2.8927728,2.9977134)">
    <g
       id="g4"
       transform="matrix(0.66835628,0,0,0.66835628,-6.6445657,9.8239946)">
      <path
         d="M 17.569572,23.620946 V 10.865401 h 5.3491 v 29.031438 h -5.3491 V 26.684106 l 0.77722,0.822938 H 6.4141851 L 7.1914047,26.684106 V 39.896839 H 1.8423052 V 10.865401 H 7.1914047 V 23.620946 L 6.4141851,22.798008 H 18.346792 Z m 26.334034,-8.320821 h -9.189479 q -0.548625,0 -0.548625,0.548626 V 34.91349 q 0,0.548626 0.548625,0.548626 h 9.189479 q 0.548625,0 0.548625,-0.548626 V 15.848751 q 0,-0.548626 -0.548625,-0.548626 z M 28.679246,33.907676 V 16.854564 q 0,-3.291753 1.737314,-4.846193 1.783033,-1.554439 5.394818,-1.554439 h 6.949258 q 3.611785,0 5.394818,1.554439 1.783033,1.55444 1.783033,4.846193 v 17.053112 q 0,3.246035 -1.783033,4.846193 -1.783033,1.554439 -5.394818,1.554439 h -6.949258 q -3.611785,0 -5.394818,-1.554439 -1.737314,-1.600158 -1.737314,-4.846193 z M 77.23258,10.865401 q 1.828752,0 2.605971,0.77722 0.77722,0.77722 0.77722,2.514534 V 39.896839 H 75.449547 V 17.40319 h 0.914376 L 69.23179,31.210267 H 66.031474 L 59.31081,17.860378 h 0.822939 V 39.896839 H 55.378994 V 10.865401 h 2.926003 q 1.325845,0 1.874471,0.41147 0.594344,0.411469 1.097251,1.417282 l 7.360726,13.944234 h -1.188688 l 8.183665,-15.772986 z m 26.33404,29.031438 H 86.467793 V 10.865401 h 16.870237 v 4.663318 H 91.039673 l 0.77722,-0.77722 v 8.869447 l -0.77722,-0.777219 h 11.429697 v 4.617599 H 91.039673 l 0.77722,-0.77722 v 9.326635 l -0.77722,-0.777219 h 12.526947 z"
         id="text2"
         style="font-weight:bold;font-size:45.7188px;line-height:1.4;font-family:'Gemunu Libre';-inkscape-font-specification:'Gemunu Libre Bold';stroke-width:0.857228"
         aria-label="HOME" />
    </g>
  </g>
</svg>
