<?xml version="1.0" encoding="UTF-8" standalone="no"?>
<svg
   id="mdi-keyboard-esc"
   viewBox="0 0 24 24"
   version="1.1"
   sodipodi:docname="kiwi-pgdown-symbol.svg"
   inkscape:version="1.4.3 (0d15f75042, 2025-12-25)"
   xmlns:inkscape="http://www.inkscape.org/namespaces/inkscape"
   xmlns:sodipodi="http://sodipodi.sourceforge.net/DTD/sodipodi-0.dtd"
   xmlns="http://www.w3.org/2000/svg"
   xmlns:svg="http://www.w3.org/2000/svg">
  <defs
     id="defs1" />
  <sodipodi:namedview
     id="namedview1"
     pagecolor="#ffffff"
     bordercolor="#000000"
     borderopacity="0.25"
     inkscape:showpageshadow="2"
     inkscape:pageopacity="0.0"
     inkscape:pagecheckerboard="0"
     inkscape:deskcolor="#d1d1d1"
     inkscape:zoom="9.3565491"
     inkscape:cx="13.306188"
     inkscape:cy="27.734584"
     inkscape:window-width="1805"
     inkscape:window-height="1134"
     inkscape:window-x="0"
     inkscape:window-y="0"
     inkscape:window-maximized="1"
     inkscape:current-layer="g4" />
  <g
     id="g3"
     transform="matrix(0.32160496,0,0,0.32160496,2.8927728,2.9977134)">
    <g
       id="g4"
       transform="matrix(0.6651674,0,0,0.6651674,-6.309028,10.468069)">
      <path
         id="text1"
         style="font-weight:bold;font-size:62.3283px;line-height:1;font-family:'Gemunu Libre';-inkscape-font-specification:'Gemunu Libre Bold';letter-spacing:-0.467462px;writing-mode:lr-tb;direction:ltr;fill:#000000;stroke-width:0.892116"
         d="M 13.665556 -19.068429 L -2.9786473 -18.758005 L -2.9786473 20.821052 L 6.2427709 20.821052 L 6.2427709 7.7923749 L 13.665556 7.7923749 C 16.158688 7.7923749 18.252567 7.3370058 19.956207 6.4228574 C 21.701399 5.4671568 23.009561 4.1813537 23.882157 2.5608179 C 24.754753 0.94028205 25.196894 -0.85473754 25.196894 -2.807691 L 25.196894 -8.7879176 C 25.196894 -12.070541 24.196721 -14.628919 22.202216 -16.457216 C 20.249262 -18.285513 17.405254 -19.151534 13.665556 -19.068429 z M 6.2427709 -11.033926 L 14.971163 -11.033926 C 15.552894 -11.033926 15.847654 -10.739166 15.847654 -10.157435 L 15.847654 -1.1186193 C 15.847654 -0.5368885 15.552894 -0.25125819 14.971163 -0.25125819 L 6.2427709 -0.25125819 L 6.2427709 -11.033926 z M 93.471909 -10.349168 C 90.064629 -10.349168 87.653631 -9.701701 86.240856 -8.4135828 C 84.828082 -7.1670168 84.122669 -4.9033996 84.122669 -1.6207757 L 84.122669 11.846147 C 84.122669 15.128771 84.953103 17.51741 86.615191 19.013289 C 88.277279 20.467616 90.983037 21.195387 94.722735 21.195387 L 107.06665 21.195387 L 107.06665 13.717821 L 93.846244 13.717821 C 93.264513 13.717821 92.978883 13.42306 92.978883 12.84133 L 92.978883 9.4723165 L 107.99793 9.4723165 L 107.99793 -1.6207757 C 107.99793 -4.9033996 107.29251 -7.1670168 105.87974 -8.4135828 C 104.50852 -9.701701 102.09752 -10.349168 98.648685 -10.349168 L 93.471909 -10.349168 z M 64.091192 -9.910922 C 60.683912 -9.9524742 58.272915 -9.3273662 56.86014 -8.039248 C 55.447365 -6.792682 54.741953 -4.6093691 54.741953 -1.4929541 L 54.741953 13.65391 C 54.741953 16.437907 55.380289 18.429123 56.668407 19.634137 C 57.998078 20.839151 60.056369 21.4419 62.840366 21.4419 L 64.401616 21.4419 C 66.603883 21.4419 68.197675 20.794433 69.194928 19.506315 C 69.785054 18.71948 70.204836 17.790341 70.445754 16.712499 L 70.445754 25.057426 C 70.445754 25.639157 70.150994 25.933917 69.569263 25.933917 L 56.175381 25.933917 L 56.175381 33.283662 L 68.765812 33.283662 C 72.50551 33.283662 75.202138 32.533532 76.864226 31.037653 C 78.526314 29.583326 79.356748 27.217046 79.356748 23.934422 L 79.356748 -9.7191896 L 64.091192 -9.910922 z M 40.553751 -9.8470112 L 28.529387 -9.7831004 L 28.529387 -2.3055345 L 40.435059 -2.3694453 C 41.01679 -2.3694453 41.30242 -2.0746849 41.30242 -1.4929541 L 41.30242 2.2412638 L 35.632618 2.2412638 C 32.225337 2.2412638 29.81434 2.8663717 28.401565 4.1129378 C 26.98879 5.3595038 26.283378 7.5428166 26.283378 10.659232 L 26.283378 13.65391 C 26.283378 16.437907 26.930844 18.429123 28.218963 19.634137 C 29.548633 20.839151 31.606924 21.4419 34.390922 21.4419 L 35.322194 21.4419 C 37.52446 21.4419 39.127382 20.794433 40.124635 19.506315 C 40.851328 18.537391 41.315257 17.355774 41.512413 15.945569 L 42.115001 20.821052 L 50.222545 20.821052 L 50.222545 -0.80819533 C 50.222545 -4.0908192 49.472415 -6.4215123 47.976536 -7.7927349 C 46.480657 -9.2055097 44.002583 -9.8885634 40.553751 -9.8470112 z M 93.846244 -3.1728956 L 98.402172 -3.1728956 C 98.983903 -3.1728956 99.269533 -2.8872653 99.269533 -2.3055345 L 99.269533 3.2455766 L 92.978883 3.2455766 L 92.978883 -2.3055345 C 92.978883 -2.8872653 93.264513 -3.1728956 93.846244 -3.1728956 z M 64.337706 -2.4333562 L 70.445754 -2.4333562 L 70.445754 13.398267 C 70.445754 13.979998 70.150994 14.274758 69.569263 14.274758 L 64.337706 14.274758 C 63.755975 14.274758 63.461214 13.979998 63.461214 13.398267 L 63.461214 -1.5568649 C 63.461214 -2.1385957 63.755975 -2.4333562 64.337706 -2.4333562 z M 35.879131 8.4771337 L 41.30242 8.4771337 L 41.30242 14.274758 L 35.879131 14.274758 C 35.2974 14.274758 35.01177 13.979998 35.01177 13.398267 L 35.01177 9.3536249 C 35.01177 8.7718941 35.2974 8.4771337 35.879131 8.4771337 z M 14.377705 30.78201 L -3.3164616 31.092434 L -3.3164616 70.671491 L 14.377705 70.981915 C 18.283599 71.023467 21.172343 70.215386 23.042186 68.553304 C 24.953581 66.891221 25.909043 64.274881 25.909043 60.701403 L 25.909043 41.062521 C 25.909043 37.489044 24.953581 34.872703 23.042186 33.210621 C 21.172343 31.506986 18.283599 30.698905 14.377705 30.78201 z M 5.9049566 38.761732 L 15.692442 38.761732 C 16.274171 38.761732 16.559803 39.047364 16.559803 39.629093 L 16.559803 62.134832 C 16.559803 62.71656 16.274171 63.002193 15.692442 63.002193 L 5.9049566 63.002193 L 5.9049566 38.761732 z M 46.880922 39.510402 C 44.678662 39.510402 43.062501 40.148742 42.0237 41.436856 C 41.291867 42.38214 40.830698 43.578278 40.635922 45.015862 L 40.024204 40.131249 L 31.989701 40.131249 L 32.108393 70.671491 L 40.964606 70.671491 L 40.836784 47.544905 C 40.836784 46.963176 41.131547 46.677543 41.713276 46.677543 L 46.880922 46.677543 C 47.462651 46.677543 47.757413 46.963176 47.757413 47.544905 L 47.757413 70.671491 L 56.604497 70.671491 L 56.604497 47.298391 C 56.604497 44.472851 55.966156 42.481623 54.678042 41.318165 C 53.389928 40.113155 51.331623 39.510402 48.506083 39.510402 L 46.880922 39.510402 z " />
    </g>
  </g>
</svg>
