<?xml version="1.0" encoding="UTF-8"?>
<svg xmlns="http://www.w3.org/2000/svg" viewBox="-12 -12 124 124">
  <path fill="#000000" d="M16.186,65.676c-0.014,0.017-0.021,0.033-0.032,0.045c-0.047,0.044-0.093,0.084-0.136,0.129 c-0.386,0.163-0.709,0.477-0.869,0.898L7.773,86.26c-0.22,0.584-0.079,1.241,0.364,1.679l0.168,0.169l-1.898,1.915 c-0.752,0.758-0.746,1.983,0.013,2.735c0.758,0.747,1.982,0.747,2.735-0.011l1.892-1.91L11.213,91c0,0.006,0.001,0.006,0.001,0.006 c0.444,0.438,1.103,0.577,1.684,0.348l19.369-7.464c0.28-0.112,0.508-0.298,0.68-0.518c0.252-0.101,0.485-0.263,0.663-0.494 c0.064-0.083,6.395-8.272,8.62-10.626C53.857,59.952,89.276,24,89.628,23.643c1.438-1.453,1.111-3.608-0.084-5.844 c2.025-1.815,2.915-4.105,2.457-6.456c-0.25-1.285-0.899-2.447-1.803-3.347C89.321,7.131,88.21,6.508,86.98,6.25 c-2.413-0.506-4.792,0.415-6.682,2.534c-2.968-1.458-4.642-0.769-5.522,0.083c-5.778,5.57-15.027,14.921-23.976,23.965 c-8.832,8.93-17.966,18.162-24.019,24.031c-1.868,1.809-7.445,6.302-9.646,8.06C16.741,65.147,16.428,65.411,16.186,65.676z M86.331,9.349c1.263,0.264,2.316,1.333,2.561,2.597c0.217,1.104-0.182,2.202-1.131,3.185c-0.582-0.731-1.217-1.443-1.876-2.113 c-0.079-0.075-0.152-0.151-0.228-0.226c-0.858-0.851-1.747-1.625-2.628-2.289C84.06,9.516,85.2,9.109,86.331,9.349z M53.049,35.059 c8.936-9.031,18.175-18.369,23.923-23.914c0.312-0.302,3.01,0.385,6.657,4.094c1.051,1.066,1.837,2.037,2.413,2.878 c0.027,0.064,0.062,0.129,0.101,0.189c0.033,0.05,0.074,0.091,0.113,0.137c1.09,1.687,1.302,2.791,1.123,2.971 c-0.31,0.314-35.704,36.235-47.449,48.658c-1.296,1.371-3.79,4.466-5.8,7.005c-0.805-2.281-2.667-4.859-4.917-7.094 c-2.218-2.196-4.811-4.056-7.149-4.965c2.516-2.044,5.568-4.571,6.923-5.887C35.06,53.24,44.205,43.998,53.049,35.059z"/>
  <path fill="#000000" d="M36.212,56.397l-6.698,5.762c-0.26,0.225-0.414,0.545-0.426,0.894c-0.013,0.343,0.119,0.674,0.363,0.915 l5.234,5.189c0.245,0.242,0.578,0.371,0.921,0.354c0.343-0.017,0.665-0.174,0.885-0.432l5.698-6.757l14.051-13.161 c0.244-0.23,0.385-0.548,0.388-0.882c0.006-0.335-0.127-0.657-0.365-0.891L51.032,42.2c-0.003-0.002-0.003-0.004-0.006-0.004 c-0.482-0.481-1.261-0.477-1.741,0.007c-0.042,0.043-0.078,0.087-0.115,0.134L36.212,56.397z M32.129,63.159l4.629-3.988 l2.65,2.629l-3.938,4.667L32.129,63.159z M53.626,48.238L41.079,59.991l-2.524-2.505l11.649-12.641L53.626,48.238z"/>
  <path fill="none" stroke="#000000" stroke-width="3.2" stroke-linecap="round" d="M6.9,99L6.1,107.9M2.55,96.95L-3.8,103.3M0.5,92.6L-8.4,93.4"/>
</svg>
